<svg width="512" height="512" viewBox="0 0 512 512" xmlns="http://www.w3.org/2000/svg">
  <!-- Safe zone background for maskable icon -->
  <circle cx="256" cy="256" r="256" fill="url(#gradient)"/>
  
  <!-- Gradient definition -->
  <defs>
    <linearGradient id="gradient" x1="0%" y1="0%" x2="100%" y2="100%">
      <stop offset="0%" style="stop-color:#1e3c72;stop-opacity:1" />
      <stop offset="100%" style="stop-color:#2a5298;stop-opacity:1" />
    </linearGradient>
  </defs>
  
  <!-- House structure (scaled down for safe zone) -->
  <g transform="translate(256, 256) scale(0.6)">
    <!-- House base -->
    <rect x="-80" y="-20" width="160" height="120" fill="#ffffff" rx="8"/>
    
    <!-- Roof -->
    <polygon points="-100,-20 0,-80 100,-20" fill="#e91e63"/>
    
    <!-- Door -->
    <rect x="-20" y="20" width="40" height="80" fill="#e91e63" rx="4"/>
    <circle cx="10" cy="60" r="4" fill="#ffffff"/>
    
    <!-- Windows -->
    <rect x="-65" y="0" width="25" height="25" fill="#64b5f6" rx="3"/>
    <rect x="40" y="0" width="25" height="25" fill="#64b5f6" rx="3"/>
    
    <!-- Window crosses -->
    <line x1="-52.5" y1="0" x2="-52.5" y2="25" stroke="#ffffff" stroke-width="3"/>
    <line x1="-65" y1="12.5" x2="-40" y2="12.5" stroke="#ffffff" stroke-width="3"/>
    <line x1="52.5" y1="0" x2="52.5" y2="25" stroke="#ffffff" stroke-width="3"/>
    <line x1="40" y1="12.5" x2="65" y2="12.5" stroke="#ffffff" stroke-width="3"/>
    
    <!-- Connection points -->
    <circle cx="-120" cy="-60" r="10" fill="#ffeb3b"/>
    <circle cx="120" cy="-60" r="10" fill="#ffeb3b"/>
    <circle cx="-120" cy="80" r="10" fill="#ffeb3b"/>
    <circle cx="120" cy="80" r="10" fill="#ffeb3b"/>
    
    <!-- Connection lines -->
    <line x1="-100" y1="-20" x2="-120" y2="-60" stroke="#ffeb3b" stroke-width="4"/>
    <line x1="100" y1="-20" x2="120" y2="-60" stroke="#ffeb3b" stroke-width="4"/>
    <line x1="-80" y1="100" x2="-120" y2="80" stroke="#ffeb3b" stroke-width="4"/>
    <line x1="80" y1="100" x2="120" y2="80" stroke="#ffeb3b" stroke-width="4"/>
  </g>
</svg>